<mxfile host="app.diagrams.net" modified="2023-11-27T10:54:22.239Z" agent="Mozilla/5.0 (Windows NT 10.0; Win64; x64) AppleWebKit/537.36 (KHTML, like Gecko) Chrome/119.0.0.0 Safari/537.36" etag="o7v_zZdsBqS-1moZhRx7" version="22.1.4" type="github">
  <diagram name="Pagina-1" id="8ObL1NVtIlX5hy-qYz2k">
    <mxGraphModel dx="2940" dy="2923" grid="1" gridSize="10" guides="1" tooltips="1" connect="1" arrows="1" fold="1" page="1" pageScale="1" pageWidth="2336" pageHeight="1654" math="0" shadow="0">
      <root>
        <mxCell id="0" />
        <mxCell id="1" parent="0" />
        <mxCell id="H8krszJTnGGUuu-urkXI-84" value="" style="edgeStyle=orthogonalEdgeStyle;rounded=0;orthogonalLoop=1;jettySize=auto;html=1;" edge="1" parent="1" source="H8krszJTnGGUuu-urkXI-1" target="H8krszJTnGGUuu-urkXI-83">
          <mxGeometry relative="1" as="geometry" />
        </mxCell>
        <mxCell id="H8krszJTnGGUuu-urkXI-1" value="START" style="ellipse;whiteSpace=wrap;html=1;fillColor=#FFFF99;" vertex="1" parent="1">
          <mxGeometry x="420" y="-1570" width="120" height="80" as="geometry" />
        </mxCell>
        <mxCell id="H8krszJTnGGUuu-urkXI-38" value="" style="edgeStyle=orthogonalEdgeStyle;rounded=0;orthogonalLoop=1;jettySize=auto;html=1;entryX=0.5;entryY=0;entryDx=0;entryDy=0;" edge="1" parent="1" source="H8krszJTnGGUuu-urkXI-2" target="H8krszJTnGGUuu-urkXI-3">
          <mxGeometry relative="1" as="geometry" />
        </mxCell>
        <mxCell id="H8krszJTnGGUuu-urkXI-2" value="- impostare il valore iniziale della soglia per il canale 1 del timer 4&lt;br&gt;- eliminare il flag dell&#39;output compare per il canale 1 del timer 4&lt;br&gt;- attivare l&#39;interrupt dell&#39;output compare per il canale 1 del timer 4&lt;br&gt;- impostare la porta GPIO associata a &quot;IO0&quot; al livello logico 0" style="rounded=0;whiteSpace=wrap;html=1;fillColor=#E6E6E6;" vertex="1" parent="1">
          <mxGeometry x="240" y="-1320" width="480" height="80" as="geometry" />
        </mxCell>
        <mxCell id="H8krszJTnGGUuu-urkXI-5" value="" style="edgeStyle=orthogonalEdgeStyle;rounded=0;orthogonalLoop=1;jettySize=auto;html=1;" edge="1" parent="1" source="H8krszJTnGGUuu-urkXI-3" target="H8krszJTnGGUuu-urkXI-4">
          <mxGeometry relative="1" as="geometry" />
        </mxCell>
        <mxCell id="H8krszJTnGGUuu-urkXI-3" value="leggere valore logioco della porta GPIO associata a &quot;SW0&quot;" style="shape=parallelogram;perimeter=parallelogramPerimeter;whiteSpace=wrap;html=1;fixedSize=1;fillColor=#FF99FF;" vertex="1" parent="1">
          <mxGeometry x="360" y="-1190" width="240" height="60" as="geometry" />
        </mxCell>
        <mxCell id="H8krszJTnGGUuu-urkXI-8" style="edgeStyle=orthogonalEdgeStyle;rounded=0;orthogonalLoop=1;jettySize=auto;html=1;exitX=0;exitY=1;exitDx=0;exitDy=0;" edge="1" parent="1" source="H8krszJTnGGUuu-urkXI-4" target="H8krszJTnGGUuu-urkXI-6">
          <mxGeometry relative="1" as="geometry">
            <Array as="points">
              <mxPoint x="380" y="-1040" />
            </Array>
          </mxGeometry>
        </mxCell>
        <mxCell id="H8krszJTnGGUuu-urkXI-9" style="edgeStyle=orthogonalEdgeStyle;rounded=0;orthogonalLoop=1;jettySize=auto;html=1;entryX=0.5;entryY=0;entryDx=0;entryDy=0;exitX=1;exitY=1;exitDx=0;exitDy=0;" edge="1" parent="1" source="H8krszJTnGGUuu-urkXI-4" target="H8krszJTnGGUuu-urkXI-7">
          <mxGeometry relative="1" as="geometry">
            <Array as="points">
              <mxPoint x="580" y="-1040" />
            </Array>
          </mxGeometry>
        </mxCell>
        <mxCell id="H8krszJTnGGUuu-urkXI-4" value="il valore appena letto è 1?" style="rhombus;whiteSpace=wrap;html=1;fillColor=#99FFFF;" vertex="1" parent="1">
          <mxGeometry x="360" y="-1100" width="240" height="80" as="geometry" />
        </mxCell>
        <mxCell id="H8krszJTnGGUuu-urkXI-30" style="edgeStyle=orthogonalEdgeStyle;rounded=0;orthogonalLoop=1;jettySize=auto;html=1;" edge="1" parent="1" source="H8krszJTnGGUuu-urkXI-6" target="H8krszJTnGGUuu-urkXI-11">
          <mxGeometry relative="1" as="geometry" />
        </mxCell>
        <mxCell id="H8krszJTnGGUuu-urkXI-6" value="accendere LED0" style="rounded=0;whiteSpace=wrap;html=1;fillColor=#E6E6E6;" vertex="1" parent="1">
          <mxGeometry x="320" y="-990" width="120" height="40" as="geometry" />
        </mxCell>
        <mxCell id="H8krszJTnGGUuu-urkXI-31" style="edgeStyle=orthogonalEdgeStyle;rounded=0;orthogonalLoop=1;jettySize=auto;html=1;entryX=0.5;entryY=0;entryDx=0;entryDy=0;" edge="1" parent="1" source="H8krszJTnGGUuu-urkXI-7" target="H8krszJTnGGUuu-urkXI-11">
          <mxGeometry relative="1" as="geometry" />
        </mxCell>
        <mxCell id="H8krszJTnGGUuu-urkXI-7" value="spegnere LED0" style="rounded=0;whiteSpace=wrap;html=1;fillColor=#E6E6E6;" vertex="1" parent="1">
          <mxGeometry x="520" y="-990" width="120" height="40" as="geometry" />
        </mxCell>
        <mxCell id="H8krszJTnGGUuu-urkXI-10" value="" style="edgeStyle=orthogonalEdgeStyle;rounded=0;orthogonalLoop=1;jettySize=auto;html=1;" edge="1" parent="1" source="H8krszJTnGGUuu-urkXI-11" target="H8krszJTnGGUuu-urkXI-14">
          <mxGeometry relative="1" as="geometry" />
        </mxCell>
        <mxCell id="H8krszJTnGGUuu-urkXI-11" value="leggere valore logioco della porta GPIO associata a &quot;SW1&quot;" style="shape=parallelogram;perimeter=parallelogramPerimeter;whiteSpace=wrap;html=1;fixedSize=1;fillColor=#FF99FF;" vertex="1" parent="1">
          <mxGeometry x="360" y="-910" width="240" height="60" as="geometry" />
        </mxCell>
        <mxCell id="H8krszJTnGGUuu-urkXI-12" style="edgeStyle=orthogonalEdgeStyle;rounded=0;orthogonalLoop=1;jettySize=auto;html=1;exitX=0;exitY=1;exitDx=0;exitDy=0;" edge="1" parent="1" source="H8krszJTnGGUuu-urkXI-14" target="H8krszJTnGGUuu-urkXI-15">
          <mxGeometry relative="1" as="geometry">
            <Array as="points">
              <mxPoint x="380" y="-760" />
            </Array>
          </mxGeometry>
        </mxCell>
        <mxCell id="H8krszJTnGGUuu-urkXI-13" style="edgeStyle=orthogonalEdgeStyle;rounded=0;orthogonalLoop=1;jettySize=auto;html=1;entryX=0.5;entryY=0;entryDx=0;entryDy=0;exitX=1;exitY=1;exitDx=0;exitDy=0;" edge="1" parent="1" source="H8krszJTnGGUuu-urkXI-14" target="H8krszJTnGGUuu-urkXI-16">
          <mxGeometry relative="1" as="geometry">
            <Array as="points">
              <mxPoint x="580" y="-760" />
            </Array>
          </mxGeometry>
        </mxCell>
        <mxCell id="H8krszJTnGGUuu-urkXI-14" value="il valore appena letto è 1?" style="rhombus;whiteSpace=wrap;html=1;fillColor=#99FFFF;" vertex="1" parent="1">
          <mxGeometry x="360" y="-820" width="240" height="80" as="geometry" />
        </mxCell>
        <mxCell id="H8krszJTnGGUuu-urkXI-32" style="edgeStyle=orthogonalEdgeStyle;rounded=0;orthogonalLoop=1;jettySize=auto;html=1;entryX=0.5;entryY=0;entryDx=0;entryDy=0;" edge="1" parent="1" source="H8krszJTnGGUuu-urkXI-15" target="H8krszJTnGGUuu-urkXI-18">
          <mxGeometry relative="1" as="geometry" />
        </mxCell>
        <mxCell id="H8krszJTnGGUuu-urkXI-15" value="accendere LED1" style="rounded=0;whiteSpace=wrap;html=1;fillColor=#E6E6E6;" vertex="1" parent="1">
          <mxGeometry x="320" y="-710" width="120" height="40" as="geometry" />
        </mxCell>
        <mxCell id="H8krszJTnGGUuu-urkXI-33" style="edgeStyle=orthogonalEdgeStyle;rounded=0;orthogonalLoop=1;jettySize=auto;html=1;entryX=0.5;entryY=0;entryDx=0;entryDy=0;" edge="1" parent="1" source="H8krszJTnGGUuu-urkXI-16" target="H8krszJTnGGUuu-urkXI-18">
          <mxGeometry relative="1" as="geometry" />
        </mxCell>
        <mxCell id="H8krszJTnGGUuu-urkXI-16" value="spegnere LED1" style="rounded=0;whiteSpace=wrap;html=1;fillColor=#E6E6E6;" vertex="1" parent="1">
          <mxGeometry x="520" y="-710" width="120" height="40" as="geometry" />
        </mxCell>
        <mxCell id="H8krszJTnGGUuu-urkXI-17" value="" style="edgeStyle=orthogonalEdgeStyle;rounded=0;orthogonalLoop=1;jettySize=auto;html=1;" edge="1" parent="1" source="H8krszJTnGGUuu-urkXI-18" target="H8krszJTnGGUuu-urkXI-21">
          <mxGeometry relative="1" as="geometry" />
        </mxCell>
        <mxCell id="H8krszJTnGGUuu-urkXI-18" value="leggere valore logioco della porta GPIO associata a &quot;SW2&quot;" style="shape=parallelogram;perimeter=parallelogramPerimeter;whiteSpace=wrap;html=1;fixedSize=1;fillColor=#FF99FF;" vertex="1" parent="1">
          <mxGeometry x="360" y="-630" width="240" height="60" as="geometry" />
        </mxCell>
        <mxCell id="H8krszJTnGGUuu-urkXI-19" style="edgeStyle=orthogonalEdgeStyle;rounded=0;orthogonalLoop=1;jettySize=auto;html=1;exitX=0;exitY=1;exitDx=0;exitDy=0;" edge="1" parent="1" source="H8krszJTnGGUuu-urkXI-21" target="H8krszJTnGGUuu-urkXI-22">
          <mxGeometry relative="1" as="geometry">
            <Array as="points">
              <mxPoint x="380" y="-480" />
            </Array>
          </mxGeometry>
        </mxCell>
        <mxCell id="H8krszJTnGGUuu-urkXI-20" style="edgeStyle=orthogonalEdgeStyle;rounded=0;orthogonalLoop=1;jettySize=auto;html=1;entryX=0.5;entryY=0;entryDx=0;entryDy=0;exitX=1;exitY=1;exitDx=0;exitDy=0;" edge="1" parent="1" source="H8krszJTnGGUuu-urkXI-21" target="H8krszJTnGGUuu-urkXI-23">
          <mxGeometry relative="1" as="geometry">
            <Array as="points">
              <mxPoint x="580" y="-480" />
            </Array>
          </mxGeometry>
        </mxCell>
        <mxCell id="H8krszJTnGGUuu-urkXI-21" value="il valore appena letto è 1?" style="rhombus;whiteSpace=wrap;html=1;fillColor=#99FFFF;" vertex="1" parent="1">
          <mxGeometry x="360" y="-540" width="240" height="80" as="geometry" />
        </mxCell>
        <mxCell id="H8krszJTnGGUuu-urkXI-34" style="edgeStyle=orthogonalEdgeStyle;rounded=0;orthogonalLoop=1;jettySize=auto;html=1;entryX=0.5;entryY=0;entryDx=0;entryDy=0;" edge="1" parent="1" source="H8krszJTnGGUuu-urkXI-22" target="H8krszJTnGGUuu-urkXI-3">
          <mxGeometry relative="1" as="geometry">
            <Array as="points">
              <mxPoint x="380" y="-370" />
              <mxPoint x="480" y="-370" />
              <mxPoint x="480" y="-310" />
              <mxPoint x="240" y="-310" />
              <mxPoint x="240" y="-1210" />
              <mxPoint x="480" y="-1210" />
            </Array>
          </mxGeometry>
        </mxCell>
        <mxCell id="H8krszJTnGGUuu-urkXI-22" value="attivare contatore del timer 4" style="rounded=0;whiteSpace=wrap;html=1;fillColor=#E6E6E6;" vertex="1" parent="1">
          <mxGeometry x="320" y="-430" width="120" height="40" as="geometry" />
        </mxCell>
        <mxCell id="H8krszJTnGGUuu-urkXI-35" style="edgeStyle=orthogonalEdgeStyle;rounded=0;orthogonalLoop=1;jettySize=auto;html=1;entryX=0.5;entryY=0;entryDx=0;entryDy=0;" edge="1" parent="1" source="H8krszJTnGGUuu-urkXI-23" target="H8krszJTnGGUuu-urkXI-3">
          <mxGeometry relative="1" as="geometry">
            <Array as="points">
              <mxPoint x="580" y="-370" />
              <mxPoint x="480" y="-370" />
              <mxPoint x="480" y="-310" />
              <mxPoint x="240" y="-310" />
              <mxPoint x="240" y="-1210" />
              <mxPoint x="480" y="-1210" />
            </Array>
          </mxGeometry>
        </mxCell>
        <mxCell id="H8krszJTnGGUuu-urkXI-23" value="disattivare contatore del timer 4" style="rounded=0;whiteSpace=wrap;html=1;fillColor=#E6E6E6;" vertex="1" parent="1">
          <mxGeometry x="520" y="-430" width="120" height="40" as="geometry" />
        </mxCell>
        <mxCell id="H8krszJTnGGUuu-urkXI-24" value="Yes" style="text;html=1;strokeColor=none;fillColor=none;align=center;verticalAlign=middle;whiteSpace=wrap;rounded=0;" vertex="1" parent="1">
          <mxGeometry x="370" y="-1040" width="60" height="30" as="geometry" />
        </mxCell>
        <mxCell id="H8krszJTnGGUuu-urkXI-25" value="Yes" style="text;html=1;strokeColor=none;fillColor=none;align=center;verticalAlign=middle;whiteSpace=wrap;rounded=0;" vertex="1" parent="1">
          <mxGeometry x="370" y="-760" width="60" height="30" as="geometry" />
        </mxCell>
        <mxCell id="H8krszJTnGGUuu-urkXI-26" value="Yes" style="text;html=1;strokeColor=none;fillColor=none;align=center;verticalAlign=middle;whiteSpace=wrap;rounded=0;" vertex="1" parent="1">
          <mxGeometry x="370" y="-480" width="60" height="30" as="geometry" />
        </mxCell>
        <mxCell id="H8krszJTnGGUuu-urkXI-27" value="No" style="text;html=1;strokeColor=none;fillColor=none;align=center;verticalAlign=middle;whiteSpace=wrap;rounded=0;" vertex="1" parent="1">
          <mxGeometry x="530" y="-760" width="60" height="30" as="geometry" />
        </mxCell>
        <mxCell id="H8krszJTnGGUuu-urkXI-28" value="No" style="text;html=1;strokeColor=none;fillColor=none;align=center;verticalAlign=middle;whiteSpace=wrap;rounded=0;" vertex="1" parent="1">
          <mxGeometry x="530" y="-480" width="60" height="30" as="geometry" />
        </mxCell>
        <mxCell id="H8krszJTnGGUuu-urkXI-29" value="No" style="text;html=1;strokeColor=none;fillColor=none;align=center;verticalAlign=middle;whiteSpace=wrap;rounded=0;" vertex="1" parent="1">
          <mxGeometry x="530" y="-1040" width="60" height="30" as="geometry" />
        </mxCell>
        <mxCell id="H8krszJTnGGUuu-urkXI-36" value="Inizio ciclo while(1)" style="text;html=1;strokeColor=none;fillColor=none;align=center;verticalAlign=middle;whiteSpace=wrap;rounded=0;" vertex="1" parent="1">
          <mxGeometry x="490" y="-1220" width="130" height="30" as="geometry" />
        </mxCell>
        <mxCell id="H8krszJTnGGUuu-urkXI-72" value="" style="edgeStyle=orthogonalEdgeStyle;rounded=0;orthogonalLoop=1;jettySize=auto;html=1;" edge="1" parent="1" source="H8krszJTnGGUuu-urkXI-73" target="H8krszJTnGGUuu-urkXI-77">
          <mxGeometry relative="1" as="geometry" />
        </mxCell>
        <mxCell id="H8krszJTnGGUuu-urkXI-73" value="START" style="ellipse;whiteSpace=wrap;html=1;fillColor=#FFFF99;" vertex="1" parent="1">
          <mxGeometry x="980" y="-1500" width="120" height="80" as="geometry" />
        </mxCell>
        <mxCell id="H8krszJTnGGUuu-urkXI-74" value="ISR per il TIMER 4" style="text;html=1;strokeColor=none;fillColor=none;align=center;verticalAlign=middle;whiteSpace=wrap;rounded=0;" vertex="1" parent="1">
          <mxGeometry x="980" y="-1530" width="120" height="30" as="geometry" />
        </mxCell>
        <mxCell id="H8krszJTnGGUuu-urkXI-75" value="" style="edgeStyle=orthogonalEdgeStyle;rounded=0;orthogonalLoop=1;jettySize=auto;html=1;" edge="1" parent="1" source="H8krszJTnGGUuu-urkXI-77" target="H8krszJTnGGUuu-urkXI-79">
          <mxGeometry relative="1" as="geometry" />
        </mxCell>
        <mxCell id="H8krszJTnGGUuu-urkXI-76" style="edgeStyle=orthogonalEdgeStyle;rounded=0;orthogonalLoop=1;jettySize=auto;html=1;" edge="1" parent="1" source="H8krszJTnGGUuu-urkXI-77">
          <mxGeometry relative="1" as="geometry">
            <mxPoint x="1040" y="-1130" as="targetPoint" />
            <Array as="points">
              <mxPoint x="1320" y="-1330" />
              <mxPoint x="1320" y="-1160" />
              <mxPoint x="1040" y="-1160" />
            </Array>
          </mxGeometry>
        </mxCell>
        <mxCell id="H8krszJTnGGUuu-urkXI-77" value="flag del canale 1 attivo?" style="rhombus;whiteSpace=wrap;html=1;fillColor=#99FFFF;" vertex="1" parent="1">
          <mxGeometry x="935" y="-1390" width="210" height="80" as="geometry" />
        </mxCell>
        <mxCell id="H8krszJTnGGUuu-urkXI-78" value="" style="edgeStyle=orthogonalEdgeStyle;rounded=0;orthogonalLoop=1;jettySize=auto;html=1;" edge="1" parent="1" source="H8krszJTnGGUuu-urkXI-79">
          <mxGeometry relative="1" as="geometry">
            <mxPoint x="1040" y="-1130" as="targetPoint" />
          </mxGeometry>
        </mxCell>
        <mxCell id="H8krszJTnGGUuu-urkXI-79" value="- reset flag canale 1&lt;br&gt;- aggiorno soglia output compare incrementando al valore già presente il valore di &quot;val1&quot;&lt;br&gt;- toogle della porta GPIO associata all&#39;output &quot;IO0&quot;" style="rounded=0;whiteSpace=wrap;html=1;fillColor=#E6E6E6;" vertex="1" parent="1">
          <mxGeometry x="840" y="-1280" width="400" height="100" as="geometry" />
        </mxCell>
        <mxCell id="H8krszJTnGGUuu-urkXI-80" value="END" style="ellipse;whiteSpace=wrap;html=1;fillColor=#FFFF99;" vertex="1" parent="1">
          <mxGeometry x="980" y="-1130" width="120" height="80" as="geometry" />
        </mxCell>
        <mxCell id="H8krszJTnGGUuu-urkXI-81" value="Yes" style="text;html=1;strokeColor=none;fillColor=none;align=center;verticalAlign=middle;whiteSpace=wrap;rounded=0;" vertex="1" parent="1">
          <mxGeometry x="990" y="-1320" width="60" height="30" as="geometry" />
        </mxCell>
        <mxCell id="H8krszJTnGGUuu-urkXI-82" value="No" style="text;html=1;strokeColor=none;fillColor=none;align=center;verticalAlign=middle;whiteSpace=wrap;rounded=0;" vertex="1" parent="1">
          <mxGeometry x="1130" y="-1360" width="60" height="30" as="geometry" />
        </mxCell>
        <mxCell id="H8krszJTnGGUuu-urkXI-85" value="" style="edgeStyle=orthogonalEdgeStyle;rounded=0;orthogonalLoop=1;jettySize=auto;html=1;" edge="1" parent="1" source="H8krszJTnGGUuu-urkXI-83" target="H8krszJTnGGUuu-urkXI-2">
          <mxGeometry relative="1" as="geometry" />
        </mxCell>
        <mxCell id="H8krszJTnGGUuu-urkXI-83" value="- attivare timer 4 con sorgente del clock interna.&lt;br&gt;- attivare il primo canale in modalità&amp;nbsp;&quot;output compare no output&quot;&lt;br&gt;- impostare il prescaler a 39999 (valore che permette di generare un&#39;onda a 1Hz se incrementata la soglia dell&#39;output compare di 1)" style="rounded=0;whiteSpace=wrap;html=1;fillColor=#E6E6E6;" vertex="1" parent="1">
          <mxGeometry x="240" y="-1455" width="480" height="95" as="geometry" />
        </mxCell>
      </root>
    </mxGraphModel>
  </diagram>
</mxfile>
